<svg fill="#FFFFFF" xmlns="http://www.w3.org/2000/svg" xmlns:xlink="http://www.w3.org/1999/xlink" version="1.1" x="0px" y="0px" viewBox="0 0 32 32.011" style="enable-background:new 0 0 32 32.011;" xml:space="preserve"><g><path d="M30.281,11.416L14.153,7.394c-1.209-0.301-2.446,0.441-2.747,1.651L7.384,25.173c-0.302,1.211,0.44,2.446,1.65,2.748   l16.128,4.023c1.209,0.301,2.446-0.442,2.748-1.652l4.022-16.127C32.234,12.955,31.491,11.718,30.281,11.416z M29.55,14.348   l-2.925,11.731c-0.101,0.402-0.514,0.65-0.916,0.55l-14.662-3.657c-0.402-0.1-0.65-0.512-0.551-0.915l2.926-11.73   c0.101-0.403,0.513-0.65,0.916-0.55L29,13.434C29.402,13.533,29.65,13.947,29.55,14.348z"></path><path d="M6.514,26.838C6.212,26.656,6,26.34,6,25.962v-7.924C6,17.465,6.465,17,7.038,17h1.354l0.997-4H7.038   C6.465,13,6,12.535,6,11.961V4.038C6,3.464,6.465,3,7.038,3h11.924C19.535,3,20,3.464,20,4.038v3.783l6,1.497V2.168   C26,0.97,25.029,0,23.831,0H2.169C0.971,0,0,0.97,0,2.168v25.663C0,29.029,0.971,30,2.169,30h11.066l-4.443-1.108   C7.7,28.619,6.874,27.822,6.514,26.838z M22,2h2v2h-2V2z M22,6h2v2h-2V6z M4,28H2v-2h2V28z M4,24H2v-2h2V24z M4,20H2v-2h2V20z    M4,16H2v-2h2V16z M4,12H2v-2h2V12z M4,8H2V6h2V8z M4,4H2V2h2V4z"></path><circle cx="16.867" cy="13.513" r="2.052"></circle><path d="M23.194,16.495c-0.137-0.417-0.505-0.51-0.821-0.205l-2.942,2.842c-0.315,0.303-0.76,0.244-0.985-0.132l-0.471-0.782   c-0.227-0.376-0.72-0.5-1.096-0.273l-4.782,2.852c-0.376,0.225-0.329,0.47,0.097,0.576l3.098,0.772   c0.426,0.106,1.123,0.281,1.549,0.388l3.662,0.912c0.426,0.105,1.123,0.28,1.548,0.386l3.099,0.773   c0.426,0.106,0.656-0.122,0.521-0.539L23.194,16.495z"></path></g></svg>